<svg id="Logo" xmlns="http://www.w3.org/2000/svg" viewBox="0 0 262 184"><defs><style>.cls-1{fill:#fff;}</style></defs><title>Logo-Postmark-2Regels_Wit</title><g id="MARK"><path id="K" class="cls-1" d="M259.17,76.82a6.91,6.91,0,0,0-7.29-3.13l-5.85.93A8.86,8.86,0,0,0,240,78.83L225.41,98.77V85.43a6.71,6.71,0,0,0-2.34-5.06A6.32,6.32,0,0,0,217.91,79l-7.26,1.15a6,6,0,0,0-5.27,6.38l0,58.7v.06a6.58,6.58,0,0,0,2.29,5,6.38,6.38,0,0,0,5.19,1.39l7.25-1.15a6,6,0,0,0,5.29-6.28v-13.7a2.37,2.37,0,0,1,.18-.44l4.83-6.16,10.45,18.92a6,6,0,0,0,6.46,3.35l8.52-1.35a6.55,6.55,0,0,0,4.92-9.64l-.06-.11L243.77,105l14.9-20.08.12-.17A7.08,7.08,0,0,0,259.17,76.82Z"/><path id="R" class="cls-1" d="M191.3,130.47c8.2-6.06,11.33-15.58,9.31-28.34-2.13-13.4-10.74-18.71-26.33-16.24L150.8,89.61a6,6,0,0,0-5.29,6.28l0,58.8v.06a6.58,6.58,0,0,0,2.29,5,6.39,6.39,0,0,0,5.19,1.39L160,160a6,6,0,0,0,5.2-6.29l-.11-14.78,5.52-.87,1.14-.21,8.75,14.89.07.11a6.1,6.1,0,0,0,6.27,2.9l7.89-1.25a6.6,6.6,0,0,0,4.74-10ZM181,107.69c1,6.61-1.82,10.23-9,11.37l-6.89,1.09V106.87l9.79-1.55C180.51,104.43,180.67,105.45,181,107.69Z"/><path id="A" class="cls-1" d="M139.83,155.66l-18.58-56a6.05,6.05,0,0,0-7-4.21l-12.08,1.91-.21,0a5.86,5.86,0,0,0-4.84,4.32L78.59,163.19a6.59,6.59,0,0,0,7.46,8.53l7-1.11A6.51,6.51,0,0,0,98.39,166l0-.1,2.52-8.8,17-2.69,2,6.29a6.22,6.22,0,0,0,7.28,4.5l7.53-1.19a6.34,6.34,0,0,0,4.43-2.87,6.43,6.43,0,0,0,.64-5.38Zm-26.91-18.83-7,1.1,3.46-11.17Z"/><path id="M" class="cls-1" d="M73.1,109.56a6.68,6.68,0,0,0-2.34-5.06,6.36,6.36,0,0,0-5.16-1.4l-9,1.43-.22,0a6.07,6.07,0,0,0-4.5,3.39l-.1.21L36.19,143l-14.9-28.6a6,6,0,0,0-6.46-3.3l-9,1.43a6,6,0,0,0-5.29,6.28l0,58.67v.08a6.81,6.81,0,0,0,2.36,5.1A6.35,6.35,0,0,0,8,184.08l6.53-1a6.17,6.17,0,0,0,5.27-5.93c0-.12,0-.24,0-.35l-.19-23,8.61,16.38a6,6,0,0,0,6.46,3.29l5.94-1A6.11,6.11,0,0,0,45.15,169a.76.76,0,0,0,.09-.18l8.64-19.16L53.79,169a6.5,6.5,0,0,0,7.59,6.62l6.4-1a6,6,0,0,0,5.37-6.3l-.05-58.7Z"/></g><g id="POST"><path id="T" class="cls-1" d="M241.36,1.68A6.43,6.43,0,0,0,236.19.26L192.53,7.17a6,6,0,0,0-5.28,6.33l.09,6.35a6.34,6.34,0,0,0,2.09,4.92,6.5,6.5,0,0,0,5.38,1.48l10.7-1.69-.06,44.81v.06a6.58,6.58,0,0,0,2.31,4.95,6.46,6.46,0,0,0,5.17,1.42l7.25-1.15a6,6,0,0,0,5.29-6.29l-.06-47,13-2.06A6,6,0,0,0,243.75,13l-.08-6.37A6.57,6.57,0,0,0,241.36,1.68Zm-1.69,5,.08,6.4a2.06,2.06,0,0,1-1.95,2.31l-15.51,2.46a.92.92,0,0,0-.88.88l.06,49.67a2,2,0,0,1-1.91,2.3l-7.26,1.15a2.46,2.46,0,0,1-2.85-2.48l.06-48.29c0-.8-.42-1.15-1.19-1l-.13,0-14,2.22a2.3,2.3,0,0,1-2.85-2.43l-.09-6.45a2,2,0,0,1,1.91-2.3l43.65-6.91A2.45,2.45,0,0,1,239.67,6.68Z"/><path id="S" class="cls-1" d="M181.32,19.37c-6.93-6.8-16.25-9.33-27.68-7.52-8.66,1.37-15.35,4.32-19.88,8.78-4.92,4.86-6.79,11.22-5.57,18.91,1.12,7.07,5.63,15.9,20.79,17.83l8.74,1.09c6.07.75,6.3,2.21,6.42,3,.59,3.74-6.3,5.12-8.42,5.46-7.62,1.21-10.84-1.57-12.6-3.77-.11-.13-.23-.26-.35-.38a6.15,6.15,0,0,0-9.54.33l-4.43,5.33a6,6,0,0,0-.51,7.7l0,0A23.26,23.26,0,0,0,140.76,85a36,36,0,0,0,16.72,1c9.15-1.45,16.24-4.61,21.09-9.4,5.21-5.14,7.2-11.87,5.91-20-1.11-7-5.72-15.82-21.36-17.66l-9.28-1.09c-2.34-.29-5.2-1-5.46-2.67-.5-3.1,5.4-4.2,6.59-4.38l.19,0c5.27-.84,9.47.26,12.82,3.35l.11.1a6.26,6.26,0,0,0,5.17,1.65,6.18,6.18,0,0,0,3.83-2.29L181.8,28a6.15,6.15,0,0,0-.34-8.52Zm-2.57,6.07L174,31a2.26,2.26,0,0,1-1.37.89,2.44,2.44,0,0,1-1.95-.74c-4.26-3.93-9.67-5.39-16.15-4.37l-.2,0c-6.57,1-10.66,4.29-9.92,9,.54,3.35,3.5,5.34,9,6l9.28,1.09q15.91,1.88,17.88,14.32,1.62,10.2-4.77,16.51T156.86,82A31.94,31.94,0,0,1,142,81.18a19.35,19.35,0,0,1-10.37-7.33,2.07,2.07,0,0,1,.25-2.82l4.45-5.36a2.23,2.23,0,0,1,3.72,0q5.55,6.93,16.34,5.22c8-1.27,12.58-4.82,11.75-10-.58-3.67-3.48-5.53-9.88-6.33l-8.72-1.08c-10.25-1.31-16-6.11-17.35-14.5-1-6.39.45-11.5,4.43-15.43s9.85-6.44,17.7-7.68q15.22-2.42,24.25,6.43A2.2,2.2,0,0,1,178.75,25.44Z"/><g id="O"><path class="cls-1" d="M91.87,36.85c-10,1.58-16.14,7.8-16.07,19.09l.08,12Q76,83.8,91.26,81.37a20.36,20.36,0,0,0,12.07-6c2.93-3.16,4.37-7.57,4.35-13.28l0-11.61C107.67,39.74,102.39,35.18,91.87,36.85Zm11.78,13.66,0,11.63c0,4.7-1.06,8.15-3.28,10.55a16.42,16.42,0,0,1-9.77,4.73c-3.81.6-6.56.21-8.18-1.17S79.9,72,79.88,67.89l-.08-12c-.06-8.81,4.1-13.75,12.7-15.11,4-.64,6.88-.23,8.57,1.22S103.66,46.35,103.65,50.51Z"/><path class="cls-1" d="M115.23,26.87c-5.85-5-14.28-6.71-25.06-5h0c-20.1,3.23-30.68,15.32-30.61,35l-.1,12.52c0,9.93,2.82,17.35,8.36,22.08,5.78,4.94,14.13,6.58,24.81,4.89,20.18-3.2,30.87-15.32,30.93-35.07l0-12.38C123.57,39.07,120.79,31.65,115.23,26.87Zm4.27,22,0,12.36Q119.48,88,92,92.36c-18.81,3-28.54-5.33-28.55-23l.1-12.56q-.11-26.62,27.25-31C109.61,22.84,119.63,31.19,119.5,48.87Z"/></g><g id="P"><path class="cls-1" d="M28.72,48.49,17.21,50.31a.87.87,0,0,0-.8.87L16.36,70.8c0,.79.42,1.14,1.23,1l10.29-1.63c4.44-.7,7.64-2.55,9.54-5.5A14.88,14.88,0,0,0,39.31,54C38.45,48.57,35.2,47.46,28.72,48.49Zm5.34,14c-1.28,2-3.51,3.2-6.8,3.72l-6.89,1.09,0-13.47,8.94-1.41c5.52-.88,5.66,0,6,2.2A11,11,0,0,1,34.06,62.51Z"/><path class="cls-1" d="M46.29,35.05C42,32.49,36.16,31.83,28.6,33L5.93,36.62A6,6,0,0,0,.64,42.9L.58,101.47a.62.62,0,0,0,0,.13A6.86,6.86,0,0,0,3,106.78a6.34,6.34,0,0,0,5.11,1.35L15.17,107a6,6,0,0,0,5.28-6.39L20.39,86.2,29,84.84C39,83.25,46.32,79.25,50.71,73S56.45,58.9,55,49.72C53.89,42.73,51,37.8,46.29,35.05Zm1.14,35.62c-3.75,5.38-10.08,8.8-19.06,10.22L17.22,82.65a.91.91,0,0,0-.84.88l.07,17.14a2.08,2.08,0,0,1-1.9,2.39l-7.07,1.12c-1.64.26-2.84-.9-2.9-2.7l.06-58.61a2,2,0,0,1,1.91-2.3L29.22,37c12.88-2,20,1.62,21.82,13.36Q53,62.58,47.43,70.67Z"/></g></g></svg>