<svg id="Logo" xmlns="http://www.w3.org/2000/svg" viewBox="0 0 400 400"><defs><style>.cls-1{fill:#fff;}</style></defs><title>Logo-Postmark-Cirkel_Wit</title><polygon class="cls-1" points="174.97 245.93 181.92 244.83 178.43 234.76 174.97 245.93"/><path class="cls-1" d="M200,0C89.54,0,0,89.54,0,200S89.54,400,200,400s200-89.54,200-200S310.46,0,200,0Zm61.53,115.17,43.66-6.91a6.43,6.43,0,0,1,5.17,1.42,6.57,6.57,0,0,1,2.31,4.95l.08,6.37a6,6,0,0,1-5.33,6.34l-13,2.06.06,47a6,6,0,0,1-5.29,6.29l-7.25,1.15a6.46,6.46,0,0,1-5.17-1.42,6.58,6.58,0,0,1-2.31-4.95v-.06l.06-44.81-10.7,1.69a6.5,6.5,0,0,1-5.38-1.48,6.34,6.34,0,0,1-2.09-4.92l-.09-6.35A6,6,0,0,1,261.53,115.17Zm-133,49.65c-.07-19.63,10.51-31.72,30.61-34.95h0c10.78-1.7,19.21,0,25.06,5,5.56,4.78,8.34,12.2,8.27,22l.05,12.38c-.06,19.75-10.75,31.87-30.93,35.07-10.68,1.69-19,.05-24.81-4.89-5.54-4.73-8.36-12.15-8.36-22.08ZM69.64,150.9a6,6,0,0,1,5.29-6.28L97.6,141c7.56-1.2,13.35-.54,17.69,2,4.67,2.75,7.6,7.68,8.7,14.67,1.46,9.18,0,17-4.28,23.23S108,191.25,98,192.84l-8.6,1.36.06,14.42A6,6,0,0,1,84.17,215l-7.07,1.12A6.34,6.34,0,0,1,72,214.78a6.86,6.86,0,0,1-2.4-5.18.62.62,0,0,1,0-.13Zm67.14,131.71-6.4,1a6.5,6.5,0,0,1-7.59-6.62l.09-19.34-8.64,19.16a.76.76,0,0,1-.09.18,6.11,6.11,0,0,1-4.53,3.44l-5.94.95a6,6,0,0,1-6.46-3.29l-8.61-16.38.19,23c0,.11,0,.23,0,.35a6.17,6.17,0,0,1-5.27,5.93l-6.53,1a6.35,6.35,0,0,1-5.14-1.38,6.81,6.81,0,0,1-2.36-5.1v-.08l0-58.67a6,6,0,0,1,5.29-6.28l9-1.43a6,6,0,0,1,6.46,3.3l14.9,28.6,15.57-34.88.1-.21a6.07,6.07,0,0,1,4.5-3.39l.22,0,9-1.43a6.36,6.36,0,0,1,5.16,1.4,6.68,6.68,0,0,1,2.34,5.06v.05l.05,58.7A6,6,0,0,1,136.78,282.61Zm71.44-13.48a6.34,6.34,0,0,1-4.43,2.87l-7.53,1.19a6.22,6.22,0,0,1-7.28-4.5l-2-6.29-17,2.69-2.52,8.8,0,.1a6.51,6.51,0,0,1-5.36,4.62l-7,1.11a6.59,6.59,0,0,1-7.46-8.53l18.49-61.53a5.86,5.86,0,0,1,4.84-4.32l.21,0,12.08-1.91a6.05,6.05,0,0,1,7,4.21l18.58,56.05,0,.09A6.43,6.43,0,0,1,208.22,269.13Zm-10.9-85,0,0a6,6,0,0,1,.51-7.7l4.43-5.33a6.15,6.15,0,0,1,9.54-.33c.12.12.24.25.35.38,1.76,2.2,5,5,12.6,3.77,2.12-.34,9-1.72,8.42-5.46-.12-.78-.35-2.24-6.42-3L218,165.37c-15.16-1.93-19.67-10.76-20.79-17.83-1.22-7.69.65-14,5.57-18.91,4.53-4.46,11.22-7.41,19.88-8.78,11.43-1.81,20.75.72,27.68,7.52l.14.14a6.15,6.15,0,0,1,.34,8.52l-4.71,5.55a6,6,0,0,1-9,.64l-.11-.1c-3.35-3.09-7.55-4.19-12.82-3.35l-.19,0c-1.19.18-7.09,1.28-6.59,4.38.26,1.69,3.12,2.38,5.46,2.67l9.28,1.09c15.64,1.84,20.25,10.62,21.36,17.66,1.29,8.11-.7,14.84-5.91,20-4.85,4.79-11.94,7.95-21.09,9.4a36,36,0,0,1-16.72-1A23.26,23.26,0,0,1,197.32,184.16Zm71.19,68.35a6.6,6.6,0,0,1-4.74,10l-7.89,1.25a6.1,6.1,0,0,1-6.27-2.9l-.07-.11-8.75-14.89-1.14.21-5.52.87.11,14.78A6,6,0,0,1,229,268L222,269.12a6.39,6.39,0,0,1-5.19-1.39,6.58,6.58,0,0,1-2.29-5v-.06l0-58.8a6,6,0,0,1,5.29-6.28l23.48-3.72c15.59-2.47,24.2,2.84,26.32,16.24,2,12.76-1.1,22.28-9.3,28.34Zm61.31-3.23a6.71,6.71,0,0,1-5,3.55l-8.52,1.35a6,6,0,0,1-6.46-3.35l-10.45-18.92-4.83,6.16a2.37,2.37,0,0,0-.18.44v13.7a6,6,0,0,1-5.29,6.28l-7.25,1.15a6.38,6.38,0,0,1-5.19-1.39,6.58,6.58,0,0,1-2.29-5v-.06l0-58.7a6,6,0,0,1,5.27-6.38l7.26-1.15a6.32,6.32,0,0,1,5.15,1.39,6.71,6.71,0,0,1,2.34,5.06v13.34L309,186.83a8.86,8.86,0,0,1,6.08-4.21l5.85-.93a6.9,6.9,0,0,1,7.29,3.13,7.08,7.08,0,0,1-.38,7.91l-.12.17L312.77,213l16.89,30.1.06.11A6.65,6.65,0,0,1,329.82,249.28Z"/><path class="cls-1" d="M76.48,212.18l7.07-1.12a2.08,2.08,0,0,0,1.9-2.39l-.07-17.14a.91.91,0,0,1,.84-.88l11.15-1.76c9-1.42,15.31-4.84,19.06-10.22s4.9-12.17,3.61-20.33c-1.86-11.74-8.94-15.4-21.82-13.36l-22.67,3.59a2,2,0,0,0-1.91,2.3l-.06,58.61C73.64,211.28,74.84,212.44,76.48,212.18Zm8.93-53a.87.87,0,0,1,.8-.87l11.51-1.82c6.48-1,9.73.08,10.59,5.52a14.88,14.88,0,0,1-1.89,10.67c-1.9,2.95-5.1,4.8-9.54,5.5l-10.29,1.63c-.81.13-1.24-.22-1.23-1Z"/><path class="cls-1" d="M161,200.36q27.47-4.35,27.55-31.13l-.05-12.36c.13-17.68-9.89-26-28.7-23.05q-27.39,4.4-27.25,31l-.1,12.56C132.46,195,142.19,203.34,161,200.36Zm-.13-55.51c10.52-1.67,15.8,2.89,15.78,13.67l0,11.61c0,5.71-1.42,10.12-4.35,13.28a20.36,20.36,0,0,1-12.07,6q-15.3,2.41-15.38-13.46l-.08-12C144.73,152.65,150.85,146.43,160.87,144.85Z"/><path class="cls-1" d="M263.19,130.3l14-2.22.13,0c.77-.13,1.2.22,1.19,1l-.06,48.29a2.46,2.46,0,0,0,2.85,2.48l7.26-1.15a2,2,0,0,0,1.91-2.3l-.06-49.67a.92.92,0,0,1,.88-.88l15.51-2.46a2.06,2.06,0,0,0,1.95-2.31l-.08-6.4a2.45,2.45,0,0,0-2.86-2.47l-43.65,6.91a2,2,0,0,0-1.91,2.3l.09,6.45A2.3,2.3,0,0,0,263.19,130.3Z"/><path class="cls-1" d="M151.45,184.25c1.62,1.38,4.37,1.77,8.18,1.17a16.42,16.42,0,0,0,9.77-4.73c2.22-2.4,3.3-5.85,3.28-10.55l0-11.63c0-4.16-.86-7-2.58-8.49s-4.57-1.86-8.57-1.22c-8.6,1.36-12.76,6.3-12.7,15.11l.08,12C148.9,180,149.77,182.82,151.45,184.25Z"/><path class="cls-1" d="M243.89,213.32l-9.79,1.55v13.28l6.89-1.09c7.21-1.14,10.07-4.76,9-11.37C249.67,213.45,249.51,212.43,243.89,213.32Z"/><path class="cls-1" d="M103.06,170.51a11,11,0,0,0,1.3-7.87c-.35-2.18-.49-3.08-6-2.2l-8.94,1.41,0,13.47,6.89-1.09C99.55,173.71,101.78,172.49,103.06,170.51Z"/><path class="cls-1" d="M225.86,190q12.51-2,18.9-8.3t4.77-16.5q-2-12.45-17.88-14.32l-9.28-1.09c-5.45-.67-8.41-2.66-9-6-.74-4.67,3.35-7.92,9.92-9l.2,0c6.48-1,11.89.44,16.15,4.37a2.44,2.44,0,0,0,1.95.74A2.26,2.26,0,0,0,243,139l4.74-5.59a2.2,2.2,0,0,0-.23-3.21q-9-8.83-24.25-6.43-11.78,1.86-17.7,7.68c-4,3.93-5.45,9-4.43,15.43,1.33,8.39,7.1,13.19,17.35,14.5l8.72,1.08c6.4.8,9.3,2.66,9.88,6.33.83,5.22-3.72,8.77-11.75,10q-10.8,1.71-16.34-5.22a2.23,2.23,0,0,0-3.72,0L200.83,179a2.07,2.07,0,0,0-.25,2.82A19.35,19.35,0,0,0,211,189.18,31.94,31.94,0,0,0,225.86,190Z"/></svg>