<svg id="Logo-PostMark" xmlns="http://www.w3.org/2000/svg" viewBox="0 0 553 198"><title>Logo-Postmark-Framed_Zwart</title><path d="M121.78,107.83c-1.68-1.44-4.57-1.85-8.57-1.22-8.6,1.36-12.75,6.31-12.7,15.11l.08,12c0,4.11.89,6.92,2.57,8.36s4.38,1.77,8.18,1.16a16.29,16.29,0,0,0,9.77-4.72c2.23-2.4,3.3-5.85,3.28-10.55l0-11.63C124.37,112.16,123.5,109.3,121.78,107.83Z"/><path d="M183.45,108.72l-9.28-1.08c-5.45-.67-8.42-2.67-8.95-6-.74-4.67,3.35-7.92,9.92-9l.19,0c6.48-1,11.9.44,16.16,4.37a2.48,2.48,0,0,0,1.94.74,2.31,2.31,0,0,0,1.38-.9l4.74-5.58a2.21,2.21,0,0,0-.23-3.22q-9-8.82-24.26-6.43-11.76,1.86-17.69,7.68c-4,3.93-5.45,9-4.44,15.44,1.33,8.38,7.11,13.19,17.35,14.49L179,120.3c6.4.8,9.29,2.67,9.88,6.34.82,5.21-3.73,8.77-11.75,10-7.21,1.14-12.64-.6-16.35-5.22a2.65,2.65,0,0,0-2.2-1,2.56,2.56,0,0,0-1.51,1l-4.45,5.35a2.09,2.09,0,0,0-.25,2.83A19.34,19.34,0,0,0,162.74,147a32,32,0,0,0,14.91.84q12.51-2,18.9-8.29T201.33,123Q199.35,110.59,183.45,108.72Z"/><path d="M111.82,91.63c-18.27,2.94-27.32,13.25-27.25,31l-.11,12.56c0,17.66,9.74,26,28.55,23q27.48-4.35,27.56-31.13l-.06-12.35C140.64,97,130.63,88.65,111.82,91.63ZM124,141.23a20.3,20.3,0,0,1-12.07,6q-15.3,2.43-15.37-13.45l-.09-12c-.07-11.28,6.06-17.5,16.08-19.09,10.51-1.67,15.79,2.89,15.78,13.67l0,11.62C128.42,133.66,127,138.07,124,141.23Z"/><path d="M50.44,102.79l-22.67,3.59a2,2,0,0,0-1.91,2.3l-.06,58.61c.05,1.81,1.26,3,2.89,2.7l7.07-1.12a2.07,2.07,0,0,0,1.9-2.39l-.07-17.14a.9.9,0,0,1,.84-.87l11.15-1.77c9-1.42,15.31-4.84,19.06-10.22s4.91-12.16,3.62-20.32C70.4,104.42,63.31,100.75,50.44,102.79Zm8.19,27.7c-1.9,2.95-5.09,4.8-9.53,5.51l-10.3,1.63c-.81.13-1.24-.22-1.22-1L37.63,117a.86.86,0,0,1,.79-.87l11.51-1.83c6.49-1,9.73.09,10.59,5.53A14.77,14.77,0,0,1,58.63,130.49Z"/><path d="M529.22,1.33,18.29,82.25A20,20,0,0,0,1.41,102l0,74.92a20,20,0,0,0,23.13,19.74l510.29-80.82a20,20,0,0,0,16.87-19.59l.61-75A20,20,0,0,0,529.22,1.33ZM71.93,138.77c-4.39,6.3-11.7,10.3-21.72,11.88L41.6,152l.06,14.41a6,6,0,0,1-5.27,6.39l-7.08,1.12a6.31,6.31,0,0,1-5.1-1.35,6.83,6.83,0,0,1-2.41-5.18v-.12l.06-58.58a6,6,0,0,1,5.28-6.28l22.67-3.59c7.57-1.2,13.36-.54,17.7,2,4.66,2.75,7.59,7.69,8.7,14.67C77.66,124.72,76.22,132.53,71.93,138.77Zm41.71,23.35c-10.69,1.69-19,0-24.82-4.88-5.54-4.74-8.35-12.15-8.36-22.09l.11-12.51c-.08-19.64,10.51-31.72,30.61-35h0c10.78-1.71,19.21,0,25.05,5,5.56,4.78,8.35,12.19,8.27,22l.06,12.38C144.51,146.8,133.81,158.93,113.64,162.12Zm85.72-19.72c-4.84,4.78-11.94,7.94-21.08,9.39a36,36,0,0,1-16.73-1A23.4,23.4,0,0,1,149.11,142l0,0a6.05,6.05,0,0,1,.51-7.71l4.43-5.32a6.17,6.17,0,0,1,9.54-.34,3.25,3.25,0,0,1,.35.39c1.76,2.19,5,5,12.6,3.77,2.13-.34,9-1.73,8.42-5.47-.12-.78-.35-2.23-6.42-3l-8.73-1.08c-15.16-1.93-19.68-10.77-20.8-17.84-1.22-7.69.66-14,5.58-18.91,4.53-4.45,11.22-7.41,19.88-8.78,11.43-1.81,20.74.72,27.68,7.53l.14.14a6.16,6.16,0,0,1,.34,8.52l-4.71,5.54a6.2,6.2,0,0,1-3.83,2.3,6.27,6.27,0,0,1-5.18-1.66l-.11-.09c-3.35-3.1-7.54-4.2-12.81-3.36l-.19,0c-1.19.19-7.09,1.28-6.6,4.38.27,1.69,3.13,2.39,5.46,2.68l9.28,1.08c15.64,1.84,20.25,10.62,21.37,17.66C206.56,130.53,204.57,137.25,199.36,142.4Zm59.58-57.24-13,2.06.06,47a6,6,0,0,1-5.29,6.28l-7.25,1.15a6.42,6.42,0,0,1-5.17-1.42,6.56,6.56,0,0,1-2.31-4.94v-.07L226,90.37l-10.7,1.69A6.5,6.5,0,0,1,210,90.58a6.38,6.38,0,0,1-2.1-4.92l-.09-6.34A6,6,0,0,1,213.05,73l43.66-6.92a6.51,6.51,0,0,1,5.17,1.42,6.59,6.59,0,0,1,2.31,5l.08,6.37A6,6,0,0,1,258.94,85.16ZM338,125.05l-6.4,1a6.5,6.5,0,0,1-7.59-6.62l.09-19.34-8.63,19.15a1.14,1.14,0,0,1-.1.19,6.14,6.14,0,0,1-4.53,3.44l-5.94.94a6,6,0,0,1-6.45-3.28l-8.62-16.38.19,23c0,.11,0,.23,0,.35a6.17,6.17,0,0,1-5.27,5.93l-6.53,1a6.35,6.35,0,0,1-5.14-1.38,6.81,6.81,0,0,1-2.36-5.1V128l0-58.67A6,6,0,0,1,276,63l9-1.43a6,6,0,0,1,6.46,3.3l14.9,28.6L322,58.59l.09-.2a6.07,6.07,0,0,1,4.5-3.39l.22,0,9-1.43a6.33,6.33,0,0,1,5.16,1.4A6.68,6.68,0,0,1,343.33,60v0l.05,58.7A6,6,0,0,1,338,125.05Zm71.44-13.48a6.37,6.37,0,0,1-4.43,2.87l-7.53,1.19a6.22,6.22,0,0,1-7.28-4.5l-2-6.29-17,2.69-2.52,8.8,0,.1a6.51,6.51,0,0,1-5.36,4.62l-7,1.11a6.59,6.59,0,0,1-7.46-8.53L367.31,52.1a5.86,5.86,0,0,1,4.84-4.32l.22,0,12.07-1.91a6.05,6.05,0,0,1,7,4.21l18.58,56.05,0,.09A6.43,6.43,0,0,1,409.45,111.57ZM469.74,95a6.6,6.6,0,0,1-4.74,10l-7.89,1.25a6.1,6.1,0,0,1-6.27-2.9l-.07-.11L442,88.29l-1.14.21-5.52.87.11,14.78a6,6,0,0,1-5.2,6.29l-7.07,1.12a6.4,6.4,0,0,1-5.19-1.39,6.58,6.58,0,0,1-2.29-5v-.06l0-58.8A6,6,0,0,1,421,40.05l23.48-3.72c15.59-2.47,24.2,2.84,26.33,16.23,2,12.77-1.11,22.29-9.31,28.34Zm61.31-3.23a6.69,6.69,0,0,1-5,3.55l-8.52,1.35a6,6,0,0,1-6.46-3.35L500.6,74.35l-4.83,6.16a1.47,1.47,0,0,0-.17.44V94.64a6,6,0,0,1-5.29,6.29l-7.25,1.15a6.39,6.39,0,0,1-5.19-1.39,6.58,6.58,0,0,1-2.29-5v-.06l0-58.7a6,6,0,0,1,5.28-6.38l7.25-1.15a6.35,6.35,0,0,1,5.16,1.39,6.73,6.73,0,0,1,2.33,5.06V49.21l14.54-19.94a8.86,8.86,0,0,1,6.08-4.21l5.85-.93a6.9,6.9,0,0,1,7.29,3.13,7.08,7.08,0,0,1-.38,7.91l-.12.17L514,55.42l16.89,30.1.06.11A6.62,6.62,0,0,1,531.05,91.72Z"/><path d="M50.56,118.25l-8.94,1.42,0,13.47,6.89-1.09c3.3-.52,5.52-1.74,6.8-3.73a10.93,10.93,0,0,0,1.3-7.87C56.23,118.28,56.08,117.38,50.56,118.25Z"/><polygon points="376.2 88.36 383.15 87.27 379.66 77.2 376.2 88.36"/><path d="M445.13,55.76l-9.8,1.55V70.59l6.9-1.09c7.2-1.15,10.06-4.76,9-11.37C450.9,55.89,450.74,54.87,445.13,55.76Z"/><path d="M257.33,70l-43.65,6.92a2,2,0,0,0-1.92,2.3l.1,6.44a2.29,2.29,0,0,0,2.84,2.43l14-2.22.13,0c.77-.12,1.2.23,1.19,1l-.06,48.3a2.45,2.45,0,0,0,2.85,2.47l7.25-1.15a2,2,0,0,0,1.92-2.3l-.06-49.67a.92.92,0,0,1,.88-.88l15.5-2.45a2.07,2.07,0,0,0,2-2.31l-.08-6.4A2.47,2.47,0,0,0,257.33,70Z"/></svg>