<svg id="Logo-PostMark" xmlns="http://www.w3.org/2000/svg" viewBox="0 0 134 92"><defs><style>.cls-1{fill:#fff;}</style></defs><title>Logo-Postmark-PM_Wit</title><g id="MARK"><path id="M" class="cls-1" d="M133.33,7A6.71,6.71,0,0,0,131,1.91,6.35,6.35,0,0,0,125.83.52l-9,1.43-.22,0a6.07,6.07,0,0,0-4.5,3.39c0,.07-.07.14-.1.2L96.42,40.45,81.52,11.86a6,6,0,0,0-6.46-3.3L66,10a6,6,0,0,0-5.29,6.28l0,58.67V75a6.81,6.81,0,0,0,2.36,5.1,6.34,6.34,0,0,0,5.14,1.38l6.53-1A6.17,6.17,0,0,0,80,74.54a2.08,2.08,0,0,0,0-.35l-.18-23,8.61,16.38a6,6,0,0,0,6.46,3.28l5.94-.94a6.14,6.14,0,0,0,4.53-3.44l.09-.19,8.64-19.15L114,66.43A6.49,6.49,0,0,0,121.61,73L128,72a6,6,0,0,0,5.38-6.3l0-58.7Z"/></g><g id="POST"><path id="P" class="cls-1" d="M29.43,19.77c12.88-2,20,1.63,21.82,13.37,1.3,8.16.09,15-3.61,20.32s-10.08,8.8-19.06,10.22L17.43,65.45a.9.9,0,0,0-.84.87l.07,17.14a2.07,2.07,0,0,1-1.9,2.39L7.69,87c-1.64.26-2.84-.89-2.89-2.7l0-58.61a2,2,0,0,1,1.92-2.3l22.66-3.59M17.8,54.61,28.09,53c4.45-.71,7.64-2.56,9.54-5.51a14.87,14.87,0,0,0,1.89-10.66c-.86-5.44-4.1-6.55-10.59-5.53L17.42,33.11a.85.85,0,0,0-.79.87l-.06,19.61c0,.8.42,1.15,1.23,1m11-38.79L6.14,19.41A6,6,0,0,0,.85,25.69l0,58.58v.12a6.82,6.82,0,0,0,2.4,5.18,6.34,6.34,0,0,0,5.11,1.35l7.07-1.12a6,6,0,0,0,5.28-6.39L20.6,69l8.61-1.37c10-1.58,17.32-5.58,21.71-11.88s5.74-14,4.28-23.24c-1.1-7-4-11.92-8.7-14.67-4.34-2.56-10.13-3.22-17.69-2ZM20.62,36.65l8.94-1.42c5.52-.87,5.66,0,6,2.2a11,11,0,0,1-1.3,7.87c-1.28,2-3.51,3.2-6.8,3.73l-6.89,1.09,0-13.47Z"/></g></svg>