<svg id="Logo-PostMark" xmlns="http://www.w3.org/2000/svg" viewBox="0 0 510 150"><title>Logo-Postmark_Zwart</title><g id="MARK"><path id="K" d="M507.4,3.24A6.91,6.91,0,0,0,500.11.11L494.26,1a8.83,8.83,0,0,0-6.08,4.21L473.64,25.19V11.85a6.71,6.71,0,0,0-2.34-5.06,6.33,6.33,0,0,0-5.15-1.39l-7.26,1.15a6,6,0,0,0-5.27,6.38l0,58.7v.06a6.59,6.59,0,0,0,2.3,5,6.37,6.37,0,0,0,5.18,1.39l7.26-1.15a6,6,0,0,0,5.28-6.29V56.93a2.37,2.37,0,0,1,.18-.44l4.83-6.16,10.45,18.92a6,6,0,0,0,6.46,3.35L504,71.25A6.57,6.57,0,0,0,509,61.61l-.06-.11L492,31.4l14.9-20.08.12-.17A7.08,7.08,0,0,0,507.4,3.24Z"/><path id="R" d="M439.53,56.88c8.2-6.05,11.33-15.57,9.3-28.34-2.12-13.39-10.73-18.7-26.32-16.23L399,16a6,6,0,0,0-5.29,6.28l0,58.8v.06a6.58,6.58,0,0,0,2.29,5,6.39,6.39,0,0,0,5.19,1.39l7.07-1.12a6,6,0,0,0,5.2-6.29l-.11-14.78,5.51-.87,1.15-.21,8.75,14.89.06.11a6.14,6.14,0,0,0,6.28,2.9L443,80.92a6.6,6.6,0,0,0,4.75-10ZM429.25,34.11c1.05,6.61-1.81,10.22-9,11.36l-6.89,1.1V33.29l9.79-1.55C428.74,30.85,428.9,31.87,429.25,34.11Z"/><path id="A" d="M388.06,82.08,369.47,26a6,6,0,0,0-7-4.21l-12.08,1.91-.21,0a5.86,5.86,0,0,0-4.84,4.32L326.82,89.61a6.59,6.59,0,0,0,7.46,8.53l7-1.11a6.51,6.51,0,0,0,5.36-4.62l0-.1,2.52-8.8,17-2.69,2,6.29a6.22,6.22,0,0,0,7.28,4.5L383,90.42a6.37,6.37,0,0,0,4.44-2.88,6.44,6.44,0,0,0,.64-5.37ZM361.15,63.24l-6.95,1.1,3.46-11.16Z"/><path id="M" d="M321.33,36A6.71,6.71,0,0,0,319,30.91a6.35,6.35,0,0,0-5.16-1.39l-9,1.43-.22,0a6.07,6.07,0,0,0-4.5,3.39c0,.07-.07.14-.1.2L284.42,69.45l-14.9-28.59a6,6,0,0,0-6.46-3.3L254,39a6,6,0,0,0-5.29,6.28l0,58.67V104a6.81,6.81,0,0,0,2.36,5.1,6.34,6.34,0,0,0,5.14,1.38l6.53-1a6.17,6.17,0,0,0,5.27-5.93,2.08,2.08,0,0,0,0-.35l-.18-23,8.61,16.38a6,6,0,0,0,6.46,3.28l5.94-.94a6.14,6.14,0,0,0,4.53-3.44l.09-.19,8.64-19.15L302,95.43a6.49,6.49,0,0,0,7.59,6.61l6.39-1a6,6,0,0,0,5.38-6.3L321.33,36Z"/></g><g id="POST"><path id="T" d="M235.33,46a2.47,2.47,0,0,1,2.86,2.48l.08,6.4a2.07,2.07,0,0,1-2,2.31l-15.5,2.45a.91.91,0,0,0-.88.88l0,49.67a2,2,0,0,1-1.91,2.3l-7.25,1.15a2.45,2.45,0,0,1-2.86-2.47l.07-48.3c0-.79-.42-1.14-1.2-1l-.12,0-14,2.22a2.3,2.3,0,0,1-2.85-2.43l-.09-6.44a2,2,0,0,1,1.91-2.3L235.33,46m-.63-4L191.05,49a6,6,0,0,0-5.29,6.33l.09,6.34a6.38,6.38,0,0,0,2.1,4.92A6.5,6.5,0,0,0,193.33,68L204,66.35,204,111.16v.07a6.57,6.57,0,0,0,2.32,4.94,6.4,6.4,0,0,0,5.16,1.42l7.26-1.15a6,6,0,0,0,5.28-6.28l0-47,13-2.06a6,6,0,0,0,5.33-6.34l-.08-6.37a6.6,6.6,0,0,0-2.32-5,6.45,6.45,0,0,0-5.17-1.42Z"/><path id="S" d="M153.06,57.59c10.15-1.61,18.26.55,24.25,6.43a2.21,2.21,0,0,1,.23,3.22l-4.73,5.58a2.37,2.37,0,0,1-1.38.9,2.49,2.49,0,0,1-2-.75c-4.25-3.92-9.67-5.39-16.15-4.36l-.19,0c-6.58,1-10.66,4.29-9.92,9,.53,3.35,3.49,5.35,8.94,6l9.28,1.08Q177.36,86.58,179.33,99q1.6,10.2-4.78,16.51t-18.9,8.29a32,32,0,0,1-14.91-.84,19.34,19.34,0,0,1-10.36-7.33,2.08,2.08,0,0,1,.25-2.83l4.45-5.35a2.56,2.56,0,0,1,1.51-1,2.65,2.65,0,0,1,2.2,1q5.55,6.93,16.35,5.22c8-1.27,12.57-4.83,11.74-10-.58-3.68-3.48-5.54-9.88-6.34l-8.72-1.08c-10.24-1.31-16-6.11-17.35-14.49-1-6.39.46-11.51,4.43-15.44s9.86-6.44,17.7-7.68m-.63-4C143.77,55,137.09,58,132.56,62.42c-4.92,4.86-6.8,11.22-5.58,18.91,1.12,7.07,5.64,15.91,20.8,17.84l8.73,1.08c6.07.76,6.3,2.21,6.42,3,.59,3.74-6.29,5.13-8.42,5.47-7.62,1.2-10.84-1.58-12.6-3.78-.11-.13-.23-.26-.35-.38a6.18,6.18,0,0,0-9.54.33l-4.43,5.33a6.05,6.05,0,0,0-.51,7.71l0,0a23.29,23.29,0,0,0,12.44,8.83,35.9,35.9,0,0,0,16.73,1c9.14-1.45,16.24-4.61,21.08-9.39,5.21-5.15,7.2-11.87,5.92-20-1.12-7-5.73-15.82-21.37-17.66l-9.28-1.08c-2.33-.29-5.19-1-5.46-2.68-.49-3.1,5.41-4.19,6.59-4.38l.2,0c5.27-.84,9.46.26,12.81,3.35l.11.1a6,6,0,0,0,9-.64l4.7-5.54a6.15,6.15,0,0,0-.34-8.52l-.14-.15c-6.93-6.8-16.24-9.33-27.68-7.52Z"/><path id="O" d="M89.81,67.61c18.82-3,28.83,5.38,28.7,23.06l0,12.35Q118.49,129.8,91,134.15c-18.81,3-28.54-5.33-28.55-23l.1-12.56c-.06-17.74,9-28,27.25-31M90,123.16a20.32,20.32,0,0,0,12.07-6c2.94-3.16,4.37-7.57,4.35-13.28l0-11.62q0-16.17-15.79-13.67c-10,1.59-16.14,7.81-16.07,19.09l.08,12q.07,15.87,15.38,13.45m-.78-59.5h0C69.07,66.9,58.49,79,58.56,98.61l-.1,12.52c0,9.94,2.82,17.35,8.36,22.09,5.78,4.93,14.13,6.57,24.82,4.88,20.17-3.19,30.86-15.32,30.92-35.07l0-12.38c.07-9.79-2.71-17.2-8.27-22-5.84-5-14.27-6.72-25-5Zm.15,55.55c-3.81.61-6.56.21-8.18-1.16s-2.55-4.25-2.57-8.36l-.08-12c-.05-8.8,4.1-13.75,12.7-15.11,4-.63,6.88-.22,8.57,1.22s2.59,4.33,2.59,8.5l0,11.63c0,4.7-1,8.15-3.28,10.55a16.41,16.41,0,0,1-9.77,4.72Z"/><path id="P" d="M28.43,78.77c12.88-2,20,1.63,21.82,13.37,1.3,8.16.09,15-3.61,20.32s-10.08,8.8-19.06,10.22l-11.15,1.77a.9.9,0,0,0-.84.87l.07,17.14a2.07,2.07,0,0,1-1.9,2.39L6.69,146c-1.64.26-2.84-.89-2.89-2.7l.05-58.61a2,2,0,0,1,1.92-2.3l22.66-3.59M16.8,113.61,27.09,112c4.45-.71,7.64-2.56,9.54-5.51a14.87,14.87,0,0,0,1.89-10.66c-.86-5.44-4.1-6.55-10.59-5.53L16.42,92.11a.85.85,0,0,0-.79.87l-.06,19.61c0,.8.42,1.15,1.23,1m11-38.79L5.14,78.41A6,6,0,0,0-.15,84.69L-.2,143.27v.12a6.82,6.82,0,0,0,2.4,5.18,6.34,6.34,0,0,0,5.11,1.35l7.07-1.12a6,6,0,0,0,5.28-6.39L19.6,128l8.61-1.37c10-1.58,17.32-5.58,21.71-11.88s5.74-14,4.28-23.24c-1.1-7-4-11.92-8.7-14.67-4.34-2.56-10.13-3.22-17.69-2ZM19.62,95.65l8.94-1.42c5.52-.87,5.66,0,6,2.2a11,11,0,0,1-1.3,7.87c-1.28,2-3.51,3.2-6.8,3.73l-6.89,1.09,0-13.47Z"/></g></svg>